<mxfile host="5af4aa0e-7f83-41c8-9991-0a565a6a0b54" modified="2020-08-28T06:51:44.119Z" agent="5.0 (Macintosh; Intel Mac OS X 10_14_6) AppleWebKit/537.36 (KHTML, like Gecko) Code/1.48.2 Chrome/78.0.3904.130 Electron/7.3.2 Safari/537.36" etag="seWXk641liGPilBLeAgw" version="13.1.3">
    <diagram id="b1jFxWymqVQ2T8fv8Vf3" name="Page-1">
        <mxGraphModel dx="1896" dy="649" grid="1" gridSize="10" guides="1" tooltips="1" connect="1" arrows="1" fold="1" page="1" pageScale="1" pageWidth="827" pageHeight="1169" background="none" math="0" shadow="0">
            <root>
                <mxCell id="0"/>
                <mxCell id="1" parent="0"/>
                <mxCell id="7" style="edgeStyle=orthogonalEdgeStyle;rounded=0;orthogonalLoop=1;jettySize=auto;html=1;exitX=1;exitY=0.5;exitDx=0;exitDy=0;entryX=0;entryY=0.5;entryDx=0;entryDy=0;strokeWidth=2;" edge="1" parent="1" source="oOfCVrL0LZrgHUZyMWEK-2" target="8">
                    <mxGeometry relative="1" as="geometry">
                        <mxPoint x="160" y="240" as="targetPoint"/>
                    </mxGeometry>
                </mxCell>
                <mxCell id="oOfCVrL0LZrgHUZyMWEK-2" value="&lt;font color=&quot;#121212&quot; style=&quot;background-color: rgb(255 , 255 , 255)&quot;&gt;Pod&lt;br&gt;Filter&lt;/font&gt;" style="rounded=1;whiteSpace=wrap;html=1;fontSize=14;fontStyle=1;fillColor=#FFFFFF;" parent="1" vertex="1">
                    <mxGeometry x="-10" y="120" width="100" height="60" as="geometry"/>
                </mxCell>
                <mxCell id="9" style="edgeStyle=orthogonalEdgeStyle;rounded=0;orthogonalLoop=1;jettySize=auto;html=1;exitX=1;exitY=0.5;exitDx=0;exitDy=0;entryX=0;entryY=0.5;entryDx=0;entryDy=0;strokeWidth=2;" edge="1" parent="1" source="oOfCVrL0LZrgHUZyMWEK-3" target="8">
                    <mxGeometry relative="1" as="geometry"/>
                </mxCell>
                <mxCell id="oOfCVrL0LZrgHUZyMWEK-3" value="&lt;font color=&quot;#000000&quot;&gt;Service&lt;br&gt;Filter&lt;/font&gt;" style="rounded=1;whiteSpace=wrap;html=1;fontSize=14;fontStyle=1;fillColor=#FFFFFF;" parent="1" vertex="1">
                    <mxGeometry x="-10" y="200" width="100" height="60" as="geometry"/>
                </mxCell>
                <mxCell id="10" style="edgeStyle=orthogonalEdgeStyle;rounded=0;orthogonalLoop=1;jettySize=auto;html=1;exitX=1;exitY=0.5;exitDx=0;exitDy=0;entryX=0;entryY=0.5;entryDx=0;entryDy=0;strokeWidth=2;" edge="1" parent="1" source="oOfCVrL0LZrgHUZyMWEK-4" target="8">
                    <mxGeometry relative="1" as="geometry"/>
                </mxCell>
                <mxCell id="oOfCVrL0LZrgHUZyMWEK-4" value="&lt;font color=&quot;#000000&quot;&gt;StatefulSet&lt;br&gt;Filter&lt;/font&gt;" style="rounded=1;whiteSpace=wrap;html=1;fontSize=14;fontStyle=1;fillColor=#FFFFFF;" parent="1" vertex="1">
                    <mxGeometry x="-10" y="280" width="100" height="60" as="geometry"/>
                </mxCell>
                <mxCell id="11" style="edgeStyle=orthogonalEdgeStyle;rounded=0;orthogonalLoop=1;jettySize=auto;html=1;exitX=1;exitY=0.5;exitDx=0;exitDy=0;entryX=0;entryY=0.5;entryDx=0;entryDy=0;strokeWidth=2;" edge="1" parent="1" source="oOfCVrL0LZrgHUZyMWEK-5" target="8">
                    <mxGeometry relative="1" as="geometry"/>
                </mxCell>
                <mxCell id="oOfCVrL0LZrgHUZyMWEK-5" value="&lt;font color=&quot;#000000&quot;&gt;Ingress&lt;br&gt;Filter&lt;/font&gt;" style="rounded=1;whiteSpace=wrap;html=1;fontSize=14;fontStyle=1;fillColor=#FFFFFF;" parent="1" vertex="1">
                    <mxGeometry x="-10" y="360" width="100" height="60" as="geometry"/>
                </mxCell>
                <mxCell id="oOfCVrL0LZrgHUZyMWEK-23" style="edgeStyle=orthogonalEdgeStyle;rounded=1;orthogonalLoop=1;jettySize=auto;html=1;exitX=1;exitY=0.5;exitDx=0;exitDy=0;entryX=0;entryY=0.5;entryDx=0;entryDy=0;fontSize=14;strokeWidth=2;" parent="1" target="oOfCVrL0LZrgHUZyMWEK-7" edge="1">
                    <mxGeometry relative="1" as="geometry">
                        <mxPoint x="400" y="270" as="sourcePoint"/>
                    </mxGeometry>
                </mxCell>
                <mxCell id="oOfCVrL0LZrgHUZyMWEK-24" style="edgeStyle=orthogonalEdgeStyle;rounded=0;orthogonalLoop=1;jettySize=auto;html=1;exitX=1;exitY=0.5;exitDx=0;exitDy=0;entryX=0;entryY=0.5;entryDx=0;entryDy=0;strokeWidth=2;fontSize=14;" parent="1" source="oOfCVrL0LZrgHUZyMWEK-7" target="oOfCVrL0LZrgHUZyMWEK-8" edge="1">
                    <mxGeometry relative="1" as="geometry"/>
                </mxCell>
                <mxCell id="oOfCVrL0LZrgHUZyMWEK-7" value="K8S CRD" style="rounded=1;whiteSpace=wrap;html=1;fontSize=14;fontStyle=1" parent="1" vertex="1">
                    <mxGeometry x="440" y="240" width="110" height="60" as="geometry"/>
                </mxCell>
                <mxCell id="oOfCVrL0LZrgHUZyMWEK-25" style="edgeStyle=orthogonalEdgeStyle;rounded=0;orthogonalLoop=1;jettySize=auto;html=1;exitX=1;exitY=0.5;exitDx=0;exitDy=0;entryX=0;entryY=0.5;entryDx=0;entryDy=0;strokeWidth=2;fontSize=14;" parent="1" target="oOfCVrL0LZrgHUZyMWEK-9" edge="1">
                    <mxGeometry relative="1" as="geometry">
                        <mxPoint x="700" y="270" as="sourcePoint"/>
                        <Array as="points">
                            <mxPoint x="700" y="200"/>
                        </Array>
                    </mxGeometry>
                </mxCell>
                <mxCell id="oOfCVrL0LZrgHUZyMWEK-26" style="edgeStyle=orthogonalEdgeStyle;rounded=0;orthogonalLoop=1;jettySize=auto;html=1;exitX=1;exitY=0.5;exitDx=0;exitDy=0;entryX=0;entryY=0.5;entryDx=0;entryDy=0;strokeWidth=2;fontSize=14;" parent="1" target="oOfCVrL0LZrgHUZyMWEK-10" edge="1">
                    <mxGeometry relative="1" as="geometry">
                        <mxPoint x="700" y="270" as="sourcePoint"/>
                    </mxGeometry>
                </mxCell>
                <mxCell id="oOfCVrL0LZrgHUZyMWEK-27" style="edgeStyle=orthogonalEdgeStyle;rounded=0;orthogonalLoop=1;jettySize=auto;html=1;entryX=0;entryY=0.5;entryDx=0;entryDy=0;strokeWidth=2;fontSize=14;" parent="1" source="oOfCVrL0LZrgHUZyMWEK-8" target="oOfCVrL0LZrgHUZyMWEK-11" edge="1">
                    <mxGeometry relative="1" as="geometry">
                        <mxPoint x="700" y="270" as="sourcePoint"/>
                        <Array as="points">
                            <mxPoint x="700" y="270"/>
                            <mxPoint x="700" y="340"/>
                        </Array>
                    </mxGeometry>
                </mxCell>
                <mxCell id="oOfCVrL0LZrgHUZyMWEK-8" value="Listener&lt;br&gt;Controller" style="rounded=1;whiteSpace=wrap;html=1;fontSize=14;fontStyle=1" parent="1" vertex="1">
                    <mxGeometry x="570" y="240" width="110" height="60" as="geometry"/>
                </mxCell>
                <mxCell id="oOfCVrL0LZrgHUZyMWEK-28" style="edgeStyle=orthogonalEdgeStyle;rounded=0;orthogonalLoop=1;jettySize=auto;html=1;exitX=1;exitY=0.5;exitDx=0;exitDy=0;entryX=0;entryY=0.5;entryDx=0;entryDy=0;strokeWidth=2;fontSize=14;" parent="1" source="oOfCVrL0LZrgHUZyMWEK-9" target="oOfCVrL0LZrgHUZyMWEK-12" edge="1">
                    <mxGeometry relative="1" as="geometry"/>
                </mxCell>
                <mxCell id="oOfCVrL0LZrgHUZyMWEK-9" value="Listener&lt;br&gt;Synchronizer" style="rounded=1;whiteSpace=wrap;html=1;fontSize=14;fontStyle=1" parent="1" vertex="1">
                    <mxGeometry x="730" y="170" width="110" height="60" as="geometry"/>
                </mxCell>
                <mxCell id="oOfCVrL0LZrgHUZyMWEK-29" style="edgeStyle=orthogonalEdgeStyle;rounded=0;orthogonalLoop=1;jettySize=auto;html=1;exitX=1;exitY=0.5;exitDx=0;exitDy=0;entryX=0;entryY=0.5;entryDx=0;entryDy=0;strokeWidth=2;fontSize=14;" parent="1" source="oOfCVrL0LZrgHUZyMWEK-10" target="oOfCVrL0LZrgHUZyMWEK-12" edge="1">
                    <mxGeometry relative="1" as="geometry"/>
                </mxCell>
                <mxCell id="oOfCVrL0LZrgHUZyMWEK-10" value="Listener&lt;br&gt;Synchronizer" style="rounded=1;whiteSpace=wrap;html=1;fontSize=14;fontStyle=1" parent="1" vertex="1">
                    <mxGeometry x="730" y="240" width="110" height="60" as="geometry"/>
                </mxCell>
                <mxCell id="oOfCVrL0LZrgHUZyMWEK-30" style="edgeStyle=orthogonalEdgeStyle;rounded=0;orthogonalLoop=1;jettySize=auto;html=1;exitX=1;exitY=0.5;exitDx=0;exitDy=0;entryX=0;entryY=0.5;entryDx=0;entryDy=0;strokeWidth=2;fontSize=14;" parent="1" source="oOfCVrL0LZrgHUZyMWEK-11" target="oOfCVrL0LZrgHUZyMWEK-12" edge="1">
                    <mxGeometry relative="1" as="geometry"/>
                </mxCell>
                <mxCell id="oOfCVrL0LZrgHUZyMWEK-11" value="Listener&lt;br&gt;Synchronizer" style="rounded=1;whiteSpace=wrap;html=1;fontSize=14;fontStyle=1" parent="1" vertex="1">
                    <mxGeometry x="730" y="310" width="110" height="60" as="geometry"/>
                </mxCell>
                <mxCell id="oOfCVrL0LZrgHUZyMWEK-12" value="Cloud API" style="rounded=1;whiteSpace=wrap;html=1;fontSize=14;fontStyle=1" parent="1" vertex="1">
                    <mxGeometry x="890" y="240" width="110" height="60" as="geometry"/>
                </mxCell>
                <mxCell id="3" value="" style="rounded=1;whiteSpace=wrap;html=1;fontSize=14;fontStyle=1" vertex="1" parent="1">
                    <mxGeometry x="280" y="180" width="120" height="160" as="geometry"/>
                </mxCell>
                <mxCell id="4" value="&lt;font color=&quot;#121212&quot;&gt;&lt;span style=&quot;background-color: rgb(255 , 255 , 255)&quot;&gt;conflict check&lt;/span&gt;&lt;/font&gt;" style="rounded=1;whiteSpace=wrap;html=1;fontSize=14;fontStyle=1;fillColor=#FFFFFF;" vertex="1" parent="1">
                    <mxGeometry x="290" y="190" width="100" height="40" as="geometry"/>
                </mxCell>
                <mxCell id="12" style="edgeStyle=orthogonalEdgeStyle;rounded=0;orthogonalLoop=1;jettySize=auto;html=1;exitX=1;exitY=0.5;exitDx=0;exitDy=0;strokeWidth=2;" edge="1" parent="1" source="8">
                    <mxGeometry relative="1" as="geometry">
                        <mxPoint x="280" y="265" as="targetPoint"/>
                        <Array as="points">
                            <mxPoint x="280" y="265"/>
                        </Array>
                    </mxGeometry>
                </mxCell>
                <mxCell id="8" value="&lt;font color=&quot;#121212&quot;&gt;&lt;span style=&quot;background-color: rgb(255 , 255 , 255)&quot;&gt;ingress event queue&lt;/span&gt;&lt;/font&gt;" style="rounded=1;whiteSpace=wrap;html=1;fontSize=14;fontStyle=1;fillColor=#FFFFFF;" vertex="1" parent="1">
                    <mxGeometry x="150" y="240" width="100" height="40" as="geometry"/>
                </mxCell>
                <mxCell id="13" value="&lt;font color=&quot;#121212&quot;&gt;&lt;span style=&quot;background-color: rgb(255 , 255 , 255)&quot;&gt;validate&lt;/span&gt;&lt;/font&gt;" style="rounded=1;whiteSpace=wrap;html=1;fontSize=14;fontStyle=1;fillColor=#FFFFFF;" vertex="1" parent="1">
                    <mxGeometry x="290" y="240" width="100" height="40" as="geometry"/>
                </mxCell>
                <mxCell id="14" value="&lt;font color=&quot;#121212&quot;&gt;&lt;span style=&quot;background-color: rgb(255 , 255 , 255)&quot;&gt;listener generator&lt;/span&gt;&lt;/font&gt;" style="rounded=1;whiteSpace=wrap;html=1;fontSize=14;fontStyle=1;fillColor=#FFFFFF;" vertex="1" parent="1">
                    <mxGeometry x="290" y="290" width="100" height="40" as="geometry"/>
                </mxCell>
                <mxCell id="15" value="" style="shape=curlyBracket;whiteSpace=wrap;html=1;rounded=1;rotation=90;" vertex="1" parent="1">
                    <mxGeometry x="770" y="90" width="20" height="120" as="geometry"/>
                </mxCell>
                <mxCell id="16" value="for each loadbalancer instance" style="text;html=1;strokeColor=none;fillColor=none;align=center;verticalAlign=middle;whiteSpace=wrap;rounded=0;fontSize=14;fontStyle=1" vertex="1" parent="1">
                    <mxGeometry x="680" y="120" width="190" height="20" as="geometry"/>
                </mxCell>
                <mxCell id="18" value="" style="endArrow=classic;html=1;strokeWidth=2;fontSize=14;" edge="1" parent="1">
                    <mxGeometry width="50" height="50" relative="1" as="geometry">
                        <mxPoint x="420" y="370" as="sourcePoint"/>
                        <mxPoint x="420" y="280" as="targetPoint"/>
                    </mxGeometry>
                </mxCell>
                <mxCell id="19" value="&lt;div&gt;Difference update&lt;/div&gt;&lt;div&gt;&lt;br&gt;&lt;/div&gt;" style="text;html=1;strokeColor=none;fillColor=none;align=center;verticalAlign=middle;whiteSpace=wrap;rounded=0;fontSize=14;fontStyle=1;" vertex="1" parent="1">
                    <mxGeometry x="400" y="380" width="40" height="20" as="geometry"/>
                </mxCell>
                <mxCell id="21" value="&lt;div&gt;filter unrelated event&lt;/div&gt;&lt;div&gt;&lt;br&gt;&lt;/div&gt;" style="text;html=1;strokeColor=none;fillColor=none;align=center;verticalAlign=middle;whiteSpace=wrap;rounded=0;fontSize=14;fontStyle=1;" vertex="1" parent="1">
                    <mxGeometry x="-40" y="100" width="160" height="20" as="geometry"/>
                </mxCell>
            </root>
        </mxGraphModel>
    </diagram>
</mxfile>